<?xml version="1.0" encoding="UTF-8" standalone="no"?>
<!DOCTYPE svg PUBLIC "-//W3C//DTD SVG 1.1//EN"
 "http://www.w3.org/Graphics/SVG/1.1/DTD/svg11.dtd">
<!-- Generated by graphviz version 2.40.1 (20161225.0304)
 -->
<!-- Title: Automaton Pages: 1 -->
<svg width="255pt" height="121pt"
 viewBox="0.00 0.00 254.99 121.00" xmlns="http://www.w3.org/2000/svg" xmlns:xlink="http://www.w3.org/1999/xlink">
<g id="graph0" class="graph" transform="scale(1 1) rotate(0) translate(4 116.9965)">
<title>Automaton</title>
<polygon fill="#ffffff" stroke="transparent" points="-4,4 -4,-116.9965 250.9931,-116.9965 250.9931,4 -4,4"/>
<!-- init -->
<g id="node1" class="node">
<title>init</title>
</g>
<!-- q1 -->
<g id="node3" class="node">
<title>q1</title>
<ellipse fill="none" stroke="#000000" cx="134.4983" cy="-23.4983" rx="19.4965" ry="19.4965"/>
<text text-anchor="middle" x="134.4983" y="-19.7983" font-family="Times,serif" font-size="14.00" fill="#000000">q1</text>
</g>
<!-- init&#45;&gt;q1 -->
<g id="edge5" class="edge">
<title>init&#45;&gt;q1</title>
<path fill="none" stroke="#000000" d="M66.1105,-23.4983C78.1378,-23.4983 92.3284,-23.4983 104.6566,-23.4983"/>
<polygon fill="#000000" stroke="#000000" points="104.9099,-26.9984 114.9098,-23.4983 104.9098,-19.9984 104.9099,-26.9984"/>
</g>
<!-- name -->
<g id="node2" class="node">
<title>name</title>
<polygon fill="none" stroke="#000000" points="72,-95.4983 0,-95.4983 0,-59.4983 78,-59.4983 78,-89.4983 72,-95.4983"/>
<polyline fill="none" stroke="#000000" points="72,-95.4983 72,-89.4983 "/>
<polyline fill="none" stroke="#000000" points="78,-89.4983 72,-89.4983 "/>
<text text-anchor="middle" x="39" y="-73.7983" font-family="Times,serif" font-size="14.00" fill="#000000">Automaton</text>
</g>
<!-- q1&#45;&gt;q1 -->
<g id="edge1" class="edge">
<title>q1&#45;&gt;q1</title>
<path fill="none" stroke="#000000" d="M128.0268,-42.0201C126.927,-51.95 129.0842,-60.9965 134.4983,-60.9965 137.8821,-60.9965 139.9936,-57.4627 140.833,-52.3881"/>
<polygon fill="#000000" stroke="#000000" points="144.3374,-52.0654 140.9698,-42.0201 137.338,-51.973 144.3374,-52.0654"/>
<text text-anchor="middle" x="134.4983" y="-64.7965" font-family="Times,serif" font-size="14.00" fill="#000000">A</text>
</g>
<!-- q0 -->
<g id="node4" class="node">
<title>q0</title>
<ellipse fill="none" stroke="#000000" cx="223.4948" cy="-23.4983" rx="19.4968" ry="19.4968"/>
<ellipse fill="none" stroke="#000000" cx="223.4948" cy="-23.4983" rx="23.4965" ry="23.4965"/>
<text text-anchor="middle" x="223.4948" y="-19.7983" font-family="Times,serif" font-size="14.00" fill="#000000">q0</text>
</g>
<!-- q1&#45;&gt;q0 -->
<g id="edge2" class="edge">
<title>q1&#45;&gt;q0</title>
<path fill="none" stroke="#000000" d="M154.2495,-23.4983C164.6265,-23.4983 177.6363,-23.4983 189.5694,-23.4983"/>
<polygon fill="#000000" stroke="#000000" points="189.6856,-26.9984 199.6856,-23.4983 189.6855,-19.9984 189.6856,-26.9984"/>
<text text-anchor="middle" x="176.9965" y="-27.2983" font-family="Times,serif" font-size="14.00" fill="#000000">B</text>
</g>
<!-- q0&#45;&gt;q0 -->
<g id="edge3" class="edge">
<title>q0&#45;&gt;q0</title>
<path fill="none" stroke="#000000" d="M219.2202,-46.9618C218.9254,-56.7226 220.3503,-64.9965 223.4948,-64.9965 225.4601,-64.9965 226.7537,-61.7645 227.3756,-56.9575"/>
<polygon fill="#000000" stroke="#000000" points="230.8729,-57.0919 227.7694,-46.9618 223.8783,-56.8163 230.8729,-57.0919"/>
<text text-anchor="middle" x="223.4948" y="-68.7965" font-family="Times,serif" font-size="14.00" fill="#000000">A</text>
</g>
<!-- q0&#45;&gt;q0 -->
<g id="edge4" class="edge">
<title>q0&#45;&gt;q0</title>
<path fill="none" stroke="#000000" d="M216.0827,-46.0861C213.1179,-64.2484 215.5886,-82.9965 223.4948,-82.9965 229.9186,-82.9965 232.7542,-70.6198 232.0014,-56.2367"/>
<polygon fill="#000000" stroke="#000000" points="235.4588,-55.6533 230.9069,-46.0861 228.4992,-56.4037 235.4588,-55.6533"/>
<text text-anchor="middle" x="223.4948" y="-86.7965" font-family="Times,serif" font-size="14.00" fill="#000000">B</text>
</g>
</g>
</svg>
