<?xml version="1.0" encoding="UTF-8" standalone="no"?>
<!DOCTYPE svg PUBLIC "-//W3C//DTD SVG 1.1//EN"
 "http://www.w3.org/Graphics/SVG/1.1/DTD/svg11.dtd">
<!-- Generated by graphviz version 2.40.1 (20161225.0304)
 -->
<!-- Title: Automaton Pages: 1 -->
<svg width="255pt" height="117pt"
 viewBox="0.00 0.00 254.99 117.00" xmlns="http://www.w3.org/2000/svg" xmlns:xlink="http://www.w3.org/1999/xlink">
<g id="graph0" class="graph" transform="scale(1 1) rotate(0) translate(4 112.9965)">
<title>Automaton</title>
<polygon fill="#ffffff" stroke="transparent" points="-4,4 -4,-112.9965 250.9931,-112.9965 250.9931,4 -4,4"/>
<!-- init -->
<g id="node1" class="node">
<title>init</title>
</g>
<!-- q0 -->
<g id="node3" class="node">
<title>q0</title>
<ellipse fill="none" stroke="#000000" cx="138.4983" cy="-23.4983" rx="19.4968" ry="19.4968"/>
<ellipse fill="none" stroke="#000000" cx="138.4983" cy="-23.4983" rx="23.4965" ry="23.4965"/>
<text text-anchor="middle" x="138.4983" y="-19.7983" font-family="Times,serif" font-size="14.00" fill="#000000">q0</text>
</g>
<!-- init&#45;&gt;q0 -->
<g id="edge5" class="edge">
<title>init&#45;&gt;q0</title>
<path fill="none" stroke="#000000" d="M66.1883,-23.4983C78.0556,-23.4983 92.0958,-23.4983 104.6326,-23.4983"/>
<polygon fill="#000000" stroke="#000000" points="104.7292,-26.9984 114.7292,-23.4983 104.7292,-19.9984 104.7292,-26.9984"/>
</g>
<!-- name -->
<g id="node2" class="node">
<title>name</title>
<polygon fill="none" stroke="#000000" points="72,-95.4983 0,-95.4983 0,-59.4983 78,-59.4983 78,-89.4983 72,-95.4983"/>
<polyline fill="none" stroke="#000000" points="72,-95.4983 72,-89.4983 "/>
<polyline fill="none" stroke="#000000" points="78,-89.4983 72,-89.4983 "/>
<text text-anchor="middle" x="39" y="-73.7983" font-family="Times,serif" font-size="14.00" fill="#000000">Automaton</text>
</g>
<!-- q0&#45;&gt;q0 -->
<g id="edge1" class="edge">
<title>q0&#45;&gt;q0</title>
<path fill="none" stroke="#000000" d="M131.1155,-46.1217C130.4123,-56.243 132.8733,-64.9965 138.4983,-64.9965 142.1018,-64.9965 144.4068,-61.4041 145.4132,-56.161"/>
<polygon fill="#000000" stroke="#000000" points="148.9117,-56.2738 145.8811,-46.1217 141.9193,-55.9479 148.9117,-56.2738"/>
<text text-anchor="middle" x="138.4983" y="-68.7965" font-family="Times,serif" font-size="14.00" fill="#000000">A</text>
</g>
<!-- q1 -->
<g id="node4" class="node">
<title>q1</title>
<ellipse fill="none" stroke="#000000" cx="227.4948" cy="-23.4983" rx="19.4965" ry="19.4965"/>
<text text-anchor="middle" x="227.4948" y="-19.7983" font-family="Times,serif" font-size="14.00" fill="#000000">q1</text>
</g>
<!-- q0&#45;&gt;q1 -->
<g id="edge2" class="edge">
<title>q0&#45;&gt;q1</title>
<path fill="none" stroke="#000000" d="M162.3477,-23.4983C173.2278,-23.4983 186.224,-23.4983 197.7363,-23.4983"/>
<polygon fill="#000000" stroke="#000000" points="197.7885,-26.9984 207.7885,-23.4983 197.7884,-19.9984 197.7885,-26.9984"/>
<text text-anchor="middle" x="184.9965" y="-27.2983" font-family="Times,serif" font-size="14.00" fill="#000000">B</text>
</g>
<!-- q1&#45;&gt;q1 -->
<g id="edge3" class="edge">
<title>q1&#45;&gt;q1</title>
<path fill="none" stroke="#000000" d="M223.6736,-42.7919C223.1449,-52.4139 224.4186,-60.9965 227.4948,-60.9965 229.3694,-60.9965 230.5746,-57.8095 231.1105,-53.1423"/>
<polygon fill="#000000" stroke="#000000" points="234.6167,-52.8594 231.316,-42.7919 227.6181,-52.7204 234.6167,-52.8594"/>
<text text-anchor="middle" x="227.4948" y="-64.7965" font-family="Times,serif" font-size="14.00" fill="#000000">A</text>
</g>
<!-- q1&#45;&gt;q1 -->
<g id="edge4" class="edge">
<title>q1&#45;&gt;q1</title>
<path fill="none" stroke="#000000" d="M221.1814,-41.9753C217.8025,-59.6746 219.9069,-78.9965 227.4948,-78.9965 233.66,-78.9965 236.2052,-66.241 235.1305,-51.9642"/>
<polygon fill="#000000" stroke="#000000" points="238.5904,-51.4295 233.8082,-41.9753 231.6509,-52.3482 238.5904,-51.4295"/>
<text text-anchor="middle" x="227.4948" y="-82.7965" font-family="Times,serif" font-size="14.00" fill="#000000">B</text>
</g>
</g>
</svg>
